<svg id="b3d1efcf-7059-4c04-a22e-733c792d727d" data-name="Layer 1" xmlns="http://www.w3.org/2000/svg" viewBox="0 0 131.47 164.5"><path d="M13.92,150.07a3.81,3.81,0,0,0,.51,2.06,4.06,4.06,0,0,0,1.36,1.34,8.57,8.57,0,0,0,2,.87c.75.22,1.53.43,2.35.63,1.09.27,2.17.57,3.23.89a10.34,10.34,0,0,1,2.84,1.34,6.54,6.54,0,0,1,2,2.23A7.13,7.13,0,0,1,29,163a8.07,8.07,0,0,1-.83,3.8,7.26,7.26,0,0,1-2.3,2.62,10.5,10.5,0,0,1-3.48,1.52,18.4,18.4,0,0,1-4.4.5,19.27,19.27,0,0,1-2.25-.14,20.58,20.58,0,0,1-2.2-.37,14.93,14.93,0,0,1-1.89-.53,6.69,6.69,0,0,1-1.34-.59v-3.15a12.06,12.06,0,0,0,1.72.7,20.13,20.13,0,0,0,2,.54c.68.15,1.36.26,2.05.35a17,17,0,0,0,1.95.12,15,15,0,0,0,2.82-.25,7.25,7.25,0,0,0,2.36-.85,4.36,4.36,0,0,0,1.61-1.61,5.14,5.14,0,0,0,.59-2.57,3.9,3.9,0,0,0-.52-2.09,4.33,4.33,0,0,0-1.39-1.37,8.26,8.26,0,0,0-2-.88c-.76-.22-1.55-.43-2.38-.63-1.1-.25-2.18-.54-3.23-.86A9.83,9.83,0,0,1,13,155.9a6.48,6.48,0,0,1-2-2.17,6.91,6.91,0,0,1-.75-3.41,8.19,8.19,0,0,1,.79-3.71A7.34,7.34,0,0,1,13.21,144a9,9,0,0,1,3.1-1.5,14.14,14.14,0,0,1,3.74-.49,19.38,19.38,0,0,1,4.22.44,19.77,19.77,0,0,1,3.58,1.13v3.19a25.17,25.17,0,0,0-3.62-1.2,17.13,17.13,0,0,0-4-.49,10,10,0,0,0-2.79.35,5.53,5.53,0,0,0-2,1A3.91,3.91,0,0,0,14.3,148,5.33,5.33,0,0,0,13.92,150.07Z" transform="translate(-7.43 -6.9)" fill="#252021"/><path d="M46,168.33a9.54,9.54,0,0,0,2.74-.35,6.62,6.62,0,0,0,2.08-1,5.81,5.81,0,0,0,1.48-1.57,7.52,7.52,0,0,0,.91-2,8.64,8.64,0,0,0,.3-1.56,15.75,15.75,0,0,0,.08-1.66V142.58H57v17.47c0,.66,0,1.35-.11,2.07a14.54,14.54,0,0,1-.33,2A10.58,10.58,0,0,1,55.38,167a8,8,0,0,1-2.09,2.31,9.86,9.86,0,0,1-3.1,1.52,14.49,14.49,0,0,1-4.24.55,14.67,14.67,0,0,1-4.08-.51,9.85,9.85,0,0,1-3-1.4,7.75,7.75,0,0,1-2.06-2.14,10.49,10.49,0,0,1-1.25-2.69,14,14,0,0,1-.46-2.27,20.9,20.9,0,0,1-.13-2.34V142.58H38.4v17.55a14.7,14.7,0,0,0,.14,2,9.45,9.45,0,0,0,.43,1.83,6.55,6.55,0,0,0,2.47,3.23A7.88,7.88,0,0,0,46,168.33Z" transform="translate(-7.43 -6.9)" fill="#252021"/><path d="M78.64,158.35q2.6,3.75,5.14,7.7h.12q-.27-4.12-.27-8.41V142.58H87.1v28.29H83.65L72.55,155.1q-2.88-4.12-5.14-7.7h-.13q.28,3.87.28,9v14.44H64.11V142.58h3.43Z" transform="translate(-7.43 -6.9)" fill="#252021"/><path d="M97.71,167.76h14.5v3.11H94.26V142.58h17.17v3.11H97.71v9.13h12.2v3.11H97.71Z" transform="translate(-7.43 -6.9)" fill="#252021"/><path d="M128.28,170.87h-3.45V145.69h-9.45v-3.11h22.35v3.11h-9.45Z" transform="translate(-7.43 -6.9)" fill="#252021"/><path d="M21.58,73.31V22.46c0-.37.79-1.41,1.41-1.41H138.72V6.9H23c-5.81,0-15.56,2-15.56,15.56V73.31c0,9.6,6,15.56,15.56,15.56H94.86V74.72H23A1.6,1.6,0,0,1,21.58,73.31Z" transform="translate(-7.43 -6.9)" fill="#e97f2e"/><path d="M124.75,56.28v50.84c0,.38-.79,1.42-1.41,1.42H7.61v14.15H123.34c5.81,0,15.56-2,15.56-15.57V56.28c0-9.6-6-15.56-15.56-15.56H51.47V54.87h71.87A1.6,1.6,0,0,1,124.75,56.28Z" transform="translate(-7.43 -6.9)" fill="#e97f2e"/></svg>