<?xml version="1.0" encoding="UTF-8"?>
<svg width="1200pt" height="1200pt" version="1.1" viewBox="0 0 1200 1200" xmlns="http://www.w3.org/2000/svg">
 <path d="m323.54 486.77s85.32-53.617 113.09-63.551c11.977 21.793 101.14 164.71 115.01 198.34 43.703-41.641 321.38-353.09 571.32-406.59-21.816 35.664-35.688 51.574-35.688 51.574s-430.39 277.68-491.91 551.4h-83.328s-91.32-204.29-188.5-331.18zm486.65 37.965c7.2227 25.008 11.305 51.359 11.305 78.648 0 157.08-127.78 284.86-284.86 284.86-157.05 0-284.86-127.78-284.86-284.86 0-157.08 127.8-284.86 284.86-284.86 80.762 0 153.6 33.938 205.51 88.105 22.008-18.648 45.215-37.344 69.238-55.633-68.352-74.328-166.05-121.25-274.73-121.25-206.02 0-373.63 167.62-373.63 373.66 0 206.02 167.62 373.66 373.63 373.66 206.04 0 373.66-167.64 373.66-373.66 0-51.719-10.586-101.02-29.664-145.85-23.52 21.07-47.258 43.605-70.465 67.172z" fill="#70d258" fill-rule="evenodd"/>
</svg>
