<?xml version="1.0" encoding="UTF-8"?>
<svg width="1200pt" height="1200pt" version="1.1" viewBox="0 0 1200 1200" xmlns="http://www.w3.org/2000/svg">
 <path d="m1175 951.48-468.6-811.44c-29.281-50.758-67.801-76.078-106.44-76.078s-77.16 25.32-106.44 76.078l-468 811.44c-59.16 101.52-11.16 184.56 106.44 184.56h936c117.6 0 165.6-83.039 107.04-184.56zm-636-478.44h122.04v283.92h-122.16v-283.92zm61.078 468h0.003906c-17.727 0-34.73-7.043-47.266-19.574-12.535-12.535-19.574-29.539-19.574-47.266 0-17.727 7.0391-34.727 19.574-47.262 12.535-12.535 29.539-19.578 47.266-19.578 17.727 0 34.727 7.043 47.262 19.578 12.535 12.535 19.578 29.535 19.578 47.262 0.03125 17.77-7.0117 34.82-19.578 47.383-12.562 12.566-29.613 19.609-47.383 19.578z" fill="#ff001b"/>
</svg>
