<?xml version="1.0" encoding="UTF-8"?>
<svg width="1200pt" height="1200pt" version="1.1" viewBox="0 0 1200 1200" xmlns="http://www.w3.org/2000/svg">
 <path d="m785.76 495.77c74.398-53.473 183.82-132.19 201.12-364.99h10.559c15.375 0.089844 30.16-5.9258 41.105-16.727 10.949-10.797 17.164-25.5 17.285-40.875v-15.574c-0.12109-15.379-6.3359-30.078-17.285-40.879-10.945-10.797-25.73-16.812-41.105-16.723h-770.93c-15.398-0.12109-30.211 5.8789-41.188 16.68-10.973 10.805-17.203 25.523-17.324 40.922v15.477c0.12109 15.379 6.3359 30.078 17.285 40.879 10.945 10.797 25.73 16.812 41.105 16.723h25.871c17.305 232.8 126.65 311.5 201.12 364.99 48 34.414 72.91 54.098 72.91 90.938 0.003906 36.84-24.887 56.59-72.691 91.008-77.23 55.465-192 138.1-202.66 391.61l-24.434-0.003906c-15.414-0.12109-30.242 5.8945-41.219 16.715-10.977 10.824-17.199 25.566-17.293 40.984v15.477c0.12109 15.398 6.3516 30.117 17.324 40.922 10.977 10.801 25.789 16.801 41.188 16.68h770.93c15.375 0.089844 30.16-5.9258 41.105-16.723 10.949-10.801 17.164-25.5 17.285-40.879v-15.477c-0.12109-15.379-6.3359-30.078-17.285-40.879-10.945-10.797-25.73-16.812-41.105-16.723h-9.0273c-10.652-253.61-125.42-336.21-202.65-391.7-48-34.414-72.91-54.098-72.91-90.938-0.003906-36.84 25.004-56.496 72.91-90.91zm-31.633 224.86c76.586 55.008 170.83 122.86 180.5 348.6l-630-0.003906c9.6016-225.77 103.92-293.62 180.5-348.62 48.887-35.113 95.09-68.281 95.09-133.92s-46.176-98.785-95.09-133.92c-73.488-52.801-163.2-117.36-178.97-322.01l626.93 0.007812c-15.672 204.67-105.6 269.23-178.97 322.01-48.887 35.113-95.09 68.281-95.09 133.92 0 65.637 46.176 98.805 95.09 133.92zm97.391-409.92c-75.414-27.891-155.25-41.93-235.66-41.445-78.18-0.44922-155.84 12.773-229.46 39.07 29.289 48.324 69.43 89.164 117.24 119.28 50.641 36.383 108 77.617 108 159.07v1.7773h15.887v-1.7773c0-81.48 57.406-122.71 108-159.07 47.039-29.668 86.707-69.652 115.99-116.93zm-512.14 715.51c-0.83984 7.8242-1.5859 15.793-2.1836 24h564.84c-0.12109-1.8242-0.3125-3.5273-0.43359-5.3047h0.003906c-32.629-71.148-90.625-127.57-162.64-158.22-72.02-30.656-152.89-33.344-226.79-7.5391-73.898 25.801-135.51 78.242-172.8 147.07z" fill="#ff814a" fill-rule="evenodd"/>
</svg>
