<?xml version="1.0" encoding="UTF-8"?>
<svg width="1200pt" height="1200pt" version="1.1" viewBox="0 0 1200 1200" xmlns="http://www.w3.org/2000/svg">
 <g fill="#007335">
  <path d="m1000.4 391.21c-18.762-14.961-24.578-40.613-14.129-62.34 19.949-41.445-1.3086-93.57-50.945-105.57-23.395-5.3438-39.777-25.766-39.777-49.992 0-47.5-43.816-83.836-91.793-73.031-23.395 5.3438-47.023-6.0586-57.477-27.785-20.898-43.34-76.59-56.051-114.23-26.004-18.762 14.961-45.004 14.961-64.004-0.11719-37.523-29.926-93.219-17.457-114.23 26.242-10.449 21.613-34.078 33.012-57.707 27.551-46.551-10.566-91.559 24.582-91.559 73.27 0 24.105-16.387 44.527-39.902 49.875-46.785 10.691-71.844 62.105-50.824 105.69 10.453 21.613 4.6328 47.262-14.367 62.34-37.168 29.688-38.117 86.688 0.23828 117.32 18.762 14.961 24.582 40.496 14.012 62.34-20.781 43.227 3.8008 94.527 50.586 105.45 0.11719 0 0.23828 0 0.35547 0.11719 23.395 5.2266 39.781 25.766 39.781 49.992 0 39.309 29.926 70.535 66.852 74.457l-136.68 215.76c-21.133 33.25 8.7852 76 47.617 66.383l88.23-21.613 37.645 82.531c16.504 36.574 68.637 33.605 81.578-3.5625l104.62-297.94c3.8008-0.35547 7.6016-0.35547 11.398 0l104.62 297.94c13.18 37.523 65.191 39.777 81.578 3.5586l37.645-82.527 88.227 21.613c39.07 9.7344 68.637-33.25 47.617-66.262l-136.68-215.89c36.934-3.9219 66.855-35.031 66.855-74.695 0-23.988 16.387-44.531 39.895-49.875 46.91-10.684 71.727-62.223 50.945-105.45l-0.12109-0.23438c-3.4453-7.125-5.1055-14.844-5.1055-22.328 0-15.199 6.7656-29.926 19.355-40.016 37.531-29.926 37.77-86.922-0.11328-117.2zm-14.844 98.793c-27.426 21.852-35.98 59.375-20.777 90.965l0.11719 0.23828c14.129 29.449-2.375 64.719-34.793 72.078-34.316 7.8398-58.305 37.883-58.305 73.27 0 32.535-30.043 57.352-62.816 49.875-34.203-7.8359-68.754 8.7852-84.074 40.613-14.25 29.688-52.367 38.355-78.012 17.812-27.551-21.969-66.023-21.969-93.695 0-25.293 20.305-63.41 12.348-78.016-17.93-16.625-34.559-55.336-48.449-84.664-40.375-31.707 7.125-62.344-16.863-62.344-50.113 0-35.148-23.75-65.074-57.953-73.031-0.11719 0-0.23828 0-0.35547-0.12109-31.945-7.2422-49.043-42.27-34.676-72.199 15.32-31.586 6.7695-68.992-21.02-91.199-25.293-20.305-25.887-59.137 0.23828-80.152 27.547-21.969 36.098-59.371 20.781-91.199-14.25-29.449 2.4922-64.719 34.793-72.078 34.32-7.7188 58.309-37.766 58.309-73.27 0-32.535 30.164-57.113 62.816-49.754 34.199 7.8359 68.754-8.9062 84.191-40.73 14.129-29.449 52.133-38.355 78.016-17.695 27.551 21.969 66.023 21.969 93.578 0 25.41-20.309 63.527-12.113 78.012 17.93 15.32 31.586 49.871 48.328 84.43 40.492 31.703-7.3594 62.461 16.742 62.461 49.992 0 32.301 20.426 63.887 58.305 73.031 32.062 7.3594 49.043 42.391 34.676 72.316-15.203 31.59-6.6484 69.113 21.02 91.078 25.41 20.43 25.883 59.262-0.24219 80.156z"/>
  <path d="m599.99 183.64c-146.77 0-266.35 119.46-266.35 266.23 0 146.89 119.58 266.35 266.35 266.35 146.89 0 266.35-119.46 266.35-266.35 0.003906-146.77-119.46-266.23-266.35-266.23zm0 508.84c-133.71 0-242.6-108.78-242.6-242.61 0-133.71 108.89-242.48 242.6-242.48 133.71 0 242.6 108.77 242.6 242.48 0 133.83-108.89 242.61-242.6 242.61z"/>
  <path d="m682.76 365.45c-6.2969-0.83594-11.637-4.75-14.371-10.332l-30.043-60.801c-15.668-31.824-61.035-31.824-76.711 0l-30.043 60.801c-2.7305 5.582-8.0742 9.5-14.367 10.332l-67.094 9.8555c-35.031 5.1055-49.047 48.211-23.633 73.031l48.449 47.262c4.5156 4.3945 6.5352 10.684 5.4648 16.859l-11.402 66.855c-6.0547 35.031 30.879 61.629 62.109 45.125l59.965-31.586c5.582-2.8516 12.23-2.9688 17.812 0l59.969 31.586c31.348 16.508 68.164-10.09 62.102-45.125l-11.398-66.855c-1.0703-6.1758 0.95312-12.469 5.4648-16.859l48.566-47.262c25.289-24.703 11.398-67.926-23.75-73.031z"/>
 </g>
</svg>
